<svg width="163" height="64" viewBox="0 0 163 64" fill="none" xmlns="http://www.w3.org/2000/svg">
<circle cx="18" cy="29" r="18" fill="url(#paint0_radial_20_7)"/>
<circle cx="18" cy="29" r="17.5" stroke="#BDEAF9" stroke-opacity="0.5"/>
<path d="M66.16 16.24V22C64 20.7467 61.76 20.12 59.44 20.12C58.4 20.12 57.6 20.3333 57.04 20.76C56.5067 21.1867 56.24 21.7333 56.24 22.4C56.24 23.0667 56.5733 23.6667 57.24 24.2C57.9067 24.7067 58.9067 25.2533 60.24 25.84C61.0667 26.2133 61.7467 26.5467 62.28 26.84C62.84 27.1067 63.4667 27.4933 64.16 28C64.88 28.48 65.44 29 65.84 29.56C66.2667 30.0933 66.6267 30.76 66.92 31.56C67.2133 32.36 67.36 33.2267 67.36 34.16C67.36 36.5867 66.4667 38.56 64.68 40.08C62.8933 41.5733 60.52 42.32 57.56 42.32C54.3867 42.32 51.8 41.76 49.8 40.64V34.44C52.2267 36.2 54.8133 37.08 57.56 37.08C58.4933 37.08 59.2667 36.84 59.88 36.36C60.4933 35.8533 60.8 35.2 60.8 34.4C60.8 34.1333 60.76 33.88 60.68 33.64C60.6 33.4 60.4533 33.1733 60.24 32.96C60.0267 32.7467 59.8133 32.5733 59.6 32.44C59.4133 32.28 59.12 32.1067 58.72 31.92C58.3467 31.7067 58.0267 31.5333 57.76 31.4C57.4933 31.2667 57.0933 31.08 56.56 30.84C56.0533 30.6 55.64 30.4133 55.32 30.28C53.5867 29.48 52.1867 28.4933 51.12 27.32C50.08 26.1467 49.56 24.5867 49.56 22.64C49.56 20.32 50.4133 18.4533 52.12 17.04C53.8267 15.6 56.1867 14.88 59.2 14.88C61.8933 14.88 64.2133 15.3333 66.16 16.24ZM87.5869 19.96H77.3469V26.92H86.2669V31.84H77.3469V42H71.1469V15.04H87.5869V19.96ZM97.5813 37.08H108.141V42H91.3813V15.04H107.981V19.96H97.5813V26.08H106.861V30.96H97.5813V37.08ZM119.299 20.04V27.64H122.219C124.886 27.64 126.219 26.3333 126.219 23.72C126.219 22.5733 125.872 21.68 125.179 21.04C124.486 20.3733 123.539 20.04 122.339 20.04H119.299ZM127.019 42L121.179 32.64H119.299V42H113.139V15.04H122.459C125.472 15.04 127.886 15.84 129.699 17.44C131.539 19.04 132.459 21.12 132.459 23.68C132.459 27.52 130.819 30.1733 127.539 31.64L134.379 42H127.019ZM145.589 31.52H152.069L151.789 30.56C151.016 27.9467 150.376 25.72 149.869 23.88C149.389 22.04 149.096 20.8533 148.989 20.32L148.829 19.52C148.616 20.9867 147.629 24.6667 145.869 30.56L145.589 31.52ZM155.189 42L153.549 36.48H144.109L142.469 42H136.029L145.029 15.04H152.789L161.789 42H155.189Z" fill="black"/>
<defs>
<radialGradient id="paint0_radial_20_7" cx="0" cy="0" r="1" gradientUnits="userSpaceOnUse" gradientTransform="translate(18 29) rotate(90) scale(18)">
<stop stop-color="#92DFF8"/>
<stop offset="1" stop-color="#54A6C0"/>
</radialGradient>
</defs>
</svg>
