<svg width="145" height="94" viewBox="0 0 145 94" fill="none" xmlns="http://www.w3.org/2000/svg">
<circle cx="24" cy="48" r="24" fill="url(#paint0_radial_20_7)"/>
<circle cx="24" cy="48" r="22.5" stroke="#BDEAF9" stroke-opacity="0.5" stroke-width="3"/>
<path d="M69.6374 41.4019C68.0224 40.2355 66.4972 39.6523 65.0617 39.6523C64.1645 39.6523 63.4467 39.8916 62.9084 40.3701C62.3701 40.8486 62.1009 41.4168 62.1009 42.0748C62.1009 42.7028 62.385 43.2411 62.9533 43.6897C63.5514 44.1383 64.4785 44.6617 65.7346 45.2598C66.9907 45.828 68.0075 46.3514 68.785 46.8299C70.6393 47.9664 71.5664 49.5664 71.5664 51.6299C71.5664 52.8561 71.2224 53.9776 70.5346 54.9944C69.8766 56.0112 68.9346 56.8187 67.7084 57.4168C66.4822 58.015 64.9421 58.314 63.0879 58.314C61.2336 58.314 59.215 57.8505 57.0318 56.9234L57.7047 52.7065L58.1981 52.3925C59.0953 53.1701 60.0673 53.7682 61.114 54.1869C62.1907 54.6056 63.1776 54.815 64.0748 54.815C65.0019 54.815 65.7346 54.5757 66.2729 54.0972C66.8112 53.6187 67.0804 53.0355 67.0804 52.3477C67.0804 51.6598 66.7813 51.0916 66.1832 50.643C65.585 50.1944 64.643 49.686 63.357 49.1178C62.1009 48.5196 61.0991 47.9813 60.3514 47.5028C58.5271 46.3963 57.615 44.8112 57.615 42.7477C57.615 41.4916 57.9439 40.3701 58.6019 39.3832C59.2897 38.3664 60.2318 37.5589 61.428 36.9607C62.6542 36.3626 64.1047 36.0785 65.7794 36.1084C67.4542 36.1383 69.2037 36.5121 71.028 37.2299L70.3103 41.1327L69.6374 41.4019ZM79.7754 45.843L82.781 45.8879L86.4595 45.7981L86.7735 46.1121L86.4595 49.4766L82.4221 49.3869L79.7305 49.4318L79.6856 51.1364L79.8651 58H75.2894L75.5585 51.5402L75.2894 36.3776H88.1641L88.4333 36.7364L88.1193 40.1458L82.9604 39.9664H79.8651L79.7754 45.843ZM104.43 54.5907L104.116 58H90.5237L90.7929 51.5402L90.5237 36.3776H104.251L104.52 36.7364L104.206 40.1458L99.0022 39.9664H95.0994L95.0097 45.1701L98.778 45.2598L102.277 45.1701L102.546 45.4841L102.232 48.8935L98.4191 48.8037L94.9649 48.8486L94.92 51.1364L95.0097 54.4112L98.8228 54.4561L104.161 54.2318L104.43 54.5907ZM118.981 49.3869C120.775 52.1682 122.51 54.6804 124.184 56.9234L124.095 57.4168C122.629 57.9551 121.149 58.2692 119.654 58.3589L119.16 57.9551C117.545 55.1738 116.229 52.7664 115.212 50.7327H111.983V51.1364L112.162 58H107.586L107.855 51.5402L107.586 36.3776L115.93 36.3327C118.203 36.3327 119.953 36.886 121.179 37.9925C122.405 39.0991 123.018 40.6841 123.018 42.7477C123.018 44.1234 122.659 45.3944 121.941 46.5607C121.224 47.7271 120.237 48.6692 118.981 49.3869ZM118.218 43.1963C118.218 40.9234 116.962 39.757 114.45 39.6972L112.162 39.8318L112.072 47.1439L115.392 47.3234C117.306 46.6654 118.248 45.2897 118.218 43.1963ZM139.749 58L139.21 55.1738L138.627 53.1551L134.41 53.0654L130.687 53.1551L130.104 54.9495L129.521 58H125.035L132.347 36.3776H137.775L144.414 58H139.749ZM135.128 40.6393H134.814L131.853 49.6561L134.769 49.7009L137.685 49.6561L135.128 40.6393Z" fill="black"/>
<defs>
<radialGradient id="paint0_radial_20_7" cx="0" cy="0" r="1" gradientUnits="userSpaceOnUse" gradientTransform="translate(24 48) rotate(90) scale(24)">
<stop stop-color="#56CAEE"/>
<stop offset="1" stop-color="#3F8398"/>
</radialGradient>
</defs>
</svg>
