<?xml version="1.0" encoding="UTF-8" standalone="no"?>
<svg
   xmlns:dc="http://purl.org/dc/elements/1.1/"
   xmlns:cc="http://creativecommons.org/ns#"
   xmlns:rdf="http://www.w3.org/1999/02/22-rdf-syntax-ns#"
   xmlns:svg="http://www.w3.org/2000/svg"
   xmlns="http://www.w3.org/2000/svg"
   xmlns:sodipodi="http://sodipodi.sourceforge.net/DTD/sodipodi-0.dtd"
   xmlns:inkscape="http://www.inkscape.org/namespaces/inkscape"
   width="23.996"
   height="14.284"
   viewBox="0 0 23.996 14.284"
   version="1.1"
   id="svg4"
   sodipodi:docname="vk.svg"
   inkscape:version="1.0.1 (3bc2e813f5, 2020-09-07)">
  <metadata
     id="metadata10">
    <rdf:RDF>
      <cc:Work
         rdf:about="">
        <dc:format>image/svg+xml</dc:format>
        <dc:type
           rdf:resource="http://purl.org/dc/dcmitype/StillImage" />
        <dc:title></dc:title>
      </cc:Work>
    </rdf:RDF>
  </metadata>
  <defs
     id="defs8" />
  <sodipodi:namedview
     pagecolor="#ffffff"
     bordercolor="#666666"
     borderopacity="1"
     objecttolerance="10"
     gridtolerance="10"
     guidetolerance="10"
     inkscape:pageopacity="0"
     inkscape:pageshadow="2"
     inkscape:window-width="1920"
     inkscape:window-height="1017"
     id="namedview6"
     showgrid="false"
     fit-margin-top="0"
     fit-margin-left="0"
     fit-margin-right="0"
     fit-margin-bottom="0"
     inkscape:zoom="8.8541667"
     inkscape:cx="-1.7217962"
     inkscape:cy="5.5863758"
     inkscape:window-x="-8"
     inkscape:window-y="-8"
     inkscape:window-maximized="1"
     inkscape:current-layer="svg4" />
  <path
     d="m 23.453,0.982 c -0.27,0.849 -0.634,1.588 -1.09,2.259 l 0.019,-0.03 q -0.672,1.12 -1.605,2.588 -0.8,1.159 -0.847,1.2 c -0.138,0.173 -0.234,0.385 -0.267,0.618 l -0.001,0.007 c 0.027,0.212 0.125,0.397 0.268,0.535 l 0.4,0.446 q 3.21,3.299 3.611,4.548 c 0.035,0.092 0.055,0.198 0.055,0.309 0,0.194 -0.062,0.373 -0.167,0.52 l 0.002,-0.003 c -0.176,0.181 -0.422,0.293 -0.694,0.293 -0.03,0 -0.061,-10e-4 -0.09,-0.004 h 0.004 -2.631 c -0.001,0 -0.003,0 -0.005,0 -0.337,0 -0.647,-0.118 -0.89,-0.314 l 0.003,0.002 C 19.174,13.665 18.859,13.35 18.577,13.008 L 18.568,12.996 Q 17.877,12.215 17.342,11.681 15.56,9.987 14.712,9.987 c -0.021,-0.002 -0.045,-0.003 -0.07,-0.003 -0.165,0 -0.319,0.051 -0.446,0.138 l 0.003,-0.002 c -0.104,0.13 -0.167,0.298 -0.167,0.479 0,0.036 0.002,0.07 0.007,0.105 V 10.7 c -0.027,0.314 -0.043,0.679 -0.043,1.048 0,0.119 0.002,0.237 0.005,0.355 v -0.017 1.159 c 0.01,0.047 0.016,0.101 0.016,0.156 0,0.242 -0.11,0.458 -0.282,0.601 l -10e-4,10e-4 c -0.387,0.177 -0.839,0.281 -1.316,0.281 -0.102,0 -0.202,-0.005 -0.301,-0.014 l 0.013,0.001 C 10.556,14.241 9.096,13.78 7.855,13.003 l 0.035,0.02 C 6.379,12.105 5.127,10.91 4.173,9.498 L 4.146,9.456 C 3.24,8.254 2.395,6.896 1.675,5.464 L 1.605,5.31 C 1.184,4.508 0.748,3.522 0.372,2.508 L 0.312,2.323 C 0.159,1.867 0.048,1.337 0.002,0.788 L 0,0.763 Q 0,0.005 0.892,0.005 h 2.63 C 3.546,0.003 3.574,0.002 3.603,0.002 3.851,0.002 4.08,0.087 4.261,0.23 L 4.259,0.228 c 0.2,0.219 0.348,0.488 0.421,0.788 L 4.683,1.028 C 5.167,2.395 5.68,3.543 6.27,4.643 L 6.203,4.506 c 0.482,0.97 1.015,1.805 1.623,2.576 L 7.803,7.051 q 0.8,0.982 1.248,0.982 c 0.009,0.001 0.02,0.001 0.032,0.001 0.148,0 0.277,-0.08 0.347,-0.2 L 9.431,7.832 C 9.505,7.642 9.548,7.421 9.548,7.191 9.548,7.142 9.546,7.093 9.542,7.045 V 7.051 3.172 C 9.521,2.715 9.409,2.288 9.222,1.905 L 9.23,1.924 C 9.106,1.66 8.957,1.432 8.78,1.229 L 8.783,1.233 C 8.619,1.069 8.507,0.854 8.472,0.614 L 8.471,0.608 c 0,-0.17 0.078,-0.323 0.2,-0.423 L 8.672,0.184 C 8.793,0.073 8.955,0.006 9.132,0.006 h 0.008 4.146 c 0.022,-0.003 0.047,-0.004 0.073,-0.004 0.195,0 0.37,0.088 0.486,0.226 l 10e-4,0.001 c 0.103,0.188 0.164,0.413 0.164,0.651 0,0.038 -0.002,0.075 -0.005,0.112 V 0.987 6.16 c -0.002,0.024 -0.003,0.052 -0.003,0.08 0,0.184 0.051,0.357 0.139,0.504 L 14.139,6.74 c 0.073,0.108 0.195,0.178 0.333,0.178 h 0.001 c 0.176,-0.012 0.336,-0.07 0.471,-0.162 l -0.003,0.002 c 0.272,-0.187 0.506,-0.4 0.709,-0.641 l 0.004,-0.005 c 0.607,-0.686 1.167,-1.444 1.655,-2.25 l 0.039,-0.07 C 17.692,3.222 18.064,2.52 18.401,1.799 L 18.463,1.652 18.909,0.76 C 19.064,0.314 19.48,0 19.969,0 c 0.019,0 0.038,0 0.057,0.001 h -0.003 2.631 q 1.066,0 0.8,0.981 z"
     id="path2"
     style="fill:#ffffff" />
</svg>
